<svg xmlns="http://www.w3.org/2000/svg" width="512" height="512" viewBox="0 0 512 512" role="img" aria-label="invites.blog">
  <defs>
    <linearGradient id="bg" x1="0" y1="0" x2="1" y2="1">
      <stop offset="0" stop-color="#6d28d9"/>
      <stop offset="0.55" stop-color="#7c3aed"/>
      <stop offset="1" stop-color="#5b21b6"/>
    </linearGradient>
    <linearGradient id="gold" x1="0" y1="0" x2="1" y2="1">
      <stop offset="0" stop-color="#f6e2a0"/>
      <stop offset="0.5" stop-color="#e7c15e"/>
      <stop offset="1" stop-color="#c99a2e"/>
    </linearGradient>
  </defs>

  <!-- brand tile -->
  <rect x="0" y="0" width="512" height="512" rx="116" fill="url(#bg)"/>
  <rect x="6" y="6" width="500" height="500" rx="112" fill="none" stroke="#ffffff" stroke-opacity="0.10" stroke-width="4"/>

  <!-- envelope -->
  <g stroke="url(#gold)" stroke-width="18" stroke-linejoin="round" stroke-linecap="round" fill="none">
    <rect x="120" y="164" width="272" height="196" rx="26" fill="#ffffff" fill-opacity="0.06"/>
    <path d="M132 182 L256 288 L380 182"/>
  </g>

  <!-- wax-seal heart -->
  <g transform="translate(256 300)">
    <circle r="46" fill="url(#gold)"/>
    <path transform="translate(0 3) scale(1.15)"
          d="M0 16 C -14 2 -24 -6 -24 -16 C -24 -26 -14 -30 -6 -25 C -2 -22 0 -18 0 -18 C 0 -18 2 -22 6 -25 C 14 -30 24 -26 24 -16 C 24 -6 14 2 0 16 Z"
          fill="#5b21b6"/>
  </g>
</svg>
